<?xml version="1.0" encoding="utf-8"?>
<svg width="333px" height="351px" viewbox="0 0 333 351" version="1.1" xmlns:xlink="http://www.w3.org/1999/xlink" xmlns="http://www.w3.org/2000/svg">
  <defs>
    <linearGradient x1="0" y1="0" x2="-0.003938712" y2="1.0886018" id="gradient_1">
      <stop offset="0" stop-color="#E8E8E8" />
      <stop offset="1" stop-color="#B2AFAF" />
    </linearGradient>
    <linearGradient x1="0.5" y1="1" x2="0.9211391" y2="0.10060243" id="gradient_2">
      <stop offset="0" stop-color="#95ABC2" stop-opacity="0.24313726" />
      <stop offset="1" stop-color="#666666" />
    </linearGradient>
    <linearGradient x1="0.3524702" y1="0.4503226" x2="1.5602319" y2="0.5" id="gradient_3">
      <stop offset="0" stop-color="#F5F7FE" />
      <stop offset="1" stop-color="#616161" />
    </linearGradient>
    <linearGradient x1="0.26436368" y1="0.17967287" x2="1.5602319" y2="0.5" id="gradient_4">
      <stop offset="0" stop-color="#F5F7FE" />
      <stop offset="1" stop-color="#575757" />
    </linearGradient>
    <linearGradient x1="1.3957608" y1="0.5" x2="0" y2="0" id="gradient_5">
      <stop offset="0" stop-color="#CBCBCB" />
      <stop offset="1" stop-color="#686868" />
    </linearGradient>
    <linearGradient x1="0.5" y1="0" x2="0.5" y2="1" id="gradient_6">
      <stop offset="0" stop-color="#FFFFFF" stop-opacity="0" />
      <stop offset="1" stop-color="#FFFFFF" />
    </linearGradient>
    <path d="M6.479 -2.19191e-08L14.0787 -4.76296e-08L14.0787 7.54723Q14.0787 7.70628 14.0709 7.86514Q14.0631 8.024 14.0475 8.18228Q14.0319 8.34057 14.0085 8.4979Q13.9852 8.65523 13.9542 8.81122Q13.9231 8.96722 13.8845 9.1215Q13.8459 9.27578 13.7997 9.42799Q13.7535 9.58019 13.6999 9.72994Q13.6464 9.87969 13.5855 10.0266Q13.5246 10.1736 13.4566 10.3174Q13.3886 10.4611 13.3136 10.6014Q13.2387 10.7417 13.1569 10.8781Q13.0751 11.0145 12.9868 11.1468Q12.8984 11.279 12.8036 11.4068Q12.7089 11.5345 12.608 11.6575Q12.5071 11.7804 12.4003 11.8983Q12.2935 12.0161 12.181 12.1286Q12.0685 12.241 11.9507 12.3479Q11.8328 12.4547 11.7099 12.5556Q11.587 12.6565 11.4592 12.7512Q11.3315 12.846 11.1992 12.9343Q11.067 13.0227 10.9305 13.1045Q10.7941 13.1862 10.6538 13.2612Q10.5136 13.3362 10.3698 13.4042Q10.226 13.4722 10.0791 13.533Q9.93213 13.5939 9.78238 13.6475Q9.63262 13.7011 9.48042 13.7472Q9.32822 13.7934 9.17394 13.8321Q9.01965 13.8707 8.86366 13.9017Q8.70766 13.9328 8.55033 13.9561Q8.39301 13.9794 8.23472 13.995Q8.07644 14.0106 7.91758 14.0184Q7.75872 14.0262 7.59967 14.0262L4.74522e-08 14.0262L2.19191e-08 6.479Q2.1381e-08 6.31995 0.00780426 6.16109Q0.0156085 6.00223 0.0311982 5.84395Q0.0467879 5.68566 0.0701254 5.52833Q0.093463 5.37101 0.124492 5.21501Q0.155521 5.05902 0.194168 4.90473Q0.232814 4.75045 0.278984 4.59825Q0.325154 4.44604 0.378736 4.29629Q0.432319 4.14654 0.493185 3.99959Q0.554051 3.85265 0.622053 3.70887Q0.690056 3.56509 0.765032 3.42482Q0.840008 3.28455 0.921776 3.14813Q1.00354 3.01171 1.09191 2.87946Q1.18027 2.74722 1.27502 2.61946Q1.36976 2.49171 1.47067 2.36877Q1.57157 2.24582 1.67838 2.12797Q1.78519 2.01012 1.89766 1.89766Q2.01012 1.78519 2.12797 1.67838Q2.24582 1.57157 2.36877 1.47067Q2.49171 1.36976 2.61946 1.27502Q2.74722 1.18027 2.87946 1.09191Q3.01171 1.00354 3.14813 0.921776Q3.28455 0.840008 3.42482 0.765032Q3.56509 0.690056 3.70887 0.622053Q3.85265 0.554051 3.99959 0.493185Q4.14654 0.432319 4.29629 0.378736Q4.44604 0.325154 4.59825 0.278984Q4.75045 0.232814 4.90473 0.194168Q5.05902 0.155521 5.21501 0.124492Q5.37101 0.0934629 5.52833 0.0701254Q5.68566 0.0467878 5.84395 0.0311981Q6.00223 0.0156085 6.16109 0.00780422Q6.31995 -2.1381e-08 6.479 -2.19191e-08Z" transform="matrix(0.99999934 -9.2694464E-08 9.2694464E-08 0.99999934 -1.5258789E-05 0)" id="path_1" />
    <path d="M11.7113 50.9255C18.1793 50.9255 23.4226 39.5255 23.4226 25.4628C23.4226 11.4001 18.1793 0 11.7113 0C5.24333 0 0 11.4001 0 25.4628C0 39.5255 5.24333 50.9255 11.7113 50.9255Z" transform="translate(82.488304 0)" id="path_2" />
    <clipPath id="mask_1">
      <use xlink:href="#path_1" />
    </clipPath>
  </defs>
  <g id="Scene" transform="translate(2 2)">
    <path d="M0 34.5C0 15.4462 45.667 0 102 0C158.333 0 204 15.4462 204 34.5C204 53.5538 158.333 69 102 69C45.667 69 0 53.5538 0 34.5Z" transform="translate(110.46881 260.94476)" id="Ellipse" fill="url(#gradient_1)" fill-rule="evenodd" stroke="none" />
    <g id="fly" transform="matrix(0.92718387 -0.37460658 0.37460658 0.92718387 0 91.05322)">
      <path d="M0 158.591C50.4054 215.054 86.7419 172.629 86.7419 172.629C103.103 140.266 85.117 117.379 89.2258 99.6129C97.0882 65.6182 134.513 48.876 158.019 64.8684C166.892 70.9049 162.882 106.768 115.622 95.5584C98.9726 91.6093 87.2904 76.0027 91.7184 46.3176C98.4881 0.934109 170.012 1.45102 172.132 0" transform="matrix(-0.42261827 -0.9063078 -0.9063078 0.42261827 243.0637 195.81262)" id="path" fill="none" fill-rule="evenodd" stroke="url(#gradient_2)" stroke-opacity="0.5" stroke-width="4" stroke-linecap="round" stroke-linejoin="round" stroke-dasharray="4 10" />
      <g id="bee" transform="matrix(-0.97437006 -0.2249511 -0.2249511 0.97437006 191.03038 10.665405)">
        <path d="M8.15074 21.4086C8.15074 21.4086 16.3015 12.6054 16.3015 8.12057C16.3015 3.63577 12.6523 0.000122237 8.15074 0.000122178C3.64918 0.000122118 -6.10831e-05 3.63577 -6.11422e-05 8.12057C-6.12014e-05 12.6054 8.15074 21.4086 8.15074 21.4086Z" transform="matrix(0.7071068 -0.70710665 0.70710665 0.7071068 -1.5258789E-05 11.526855)" id="Oval" fill="#CED8E5" fill-opacity="0.4" fill-rule="evenodd" stroke="none" />
        <path d="M8.15081 21.4085C8.15081 21.4085 16.3016 12.6052 16.3016 8.12045C16.3016 3.63565 12.6524 1.6684e-07 8.15081 1.0748e-07C3.64924 4.81205e-08 -4.79413e-08 3.63565 -1.0708e-07 8.12045C-1.66218e-07 12.6052 8.15081 21.4085 8.15081 21.4085Z" transform="matrix(-0.7071068 0.70710665 -0.70710665 -0.7071068 47.412003 35.06897)" id="Oval-Copy" fill="#CED8E5" fill-opacity="0.4" fill-rule="evenodd" stroke="none" />
        <g id="Rectangle-4" transform="matrix(1 2.9435407E-08 -2.9435407E-08 1 17.017685 15.524414)">
          <path d="M6.479 -2.19191e-08L14.0787 -4.76296e-08L14.0787 7.54723Q14.0787 7.70628 14.0709 7.86514Q14.0631 8.024 14.0475 8.18228Q14.0319 8.34057 14.0085 8.4979Q13.9852 8.65523 13.9542 8.81122Q13.9231 8.96722 13.8845 9.1215Q13.8459 9.27578 13.7997 9.42799Q13.7535 9.58019 13.6999 9.72994Q13.6464 9.87969 13.5855 10.0266Q13.5246 10.1736 13.4566 10.3174Q13.3886 10.4611 13.3136 10.6014Q13.2387 10.7417 13.1569 10.8781Q13.0751 11.0145 12.9868 11.1468Q12.8984 11.279 12.8036 11.4068Q12.7089 11.5345 12.608 11.6575Q12.5071 11.7804 12.4003 11.8983Q12.2935 12.0161 12.181 12.1286Q12.0685 12.241 11.9507 12.3479Q11.8328 12.4547 11.7099 12.5556Q11.587 12.6565 11.4592 12.7512Q11.3315 12.846 11.1992 12.9343Q11.067 13.0227 10.9305 13.1045Q10.7941 13.1862 10.6538 13.2612Q10.5136 13.3362 10.3698 13.4042Q10.226 13.4722 10.0791 13.533Q9.93213 13.5939 9.78238 13.6475Q9.63262 13.7011 9.48042 13.7472Q9.32822 13.7934 9.17394 13.8321Q9.01965 13.8707 8.86366 13.9017Q8.70766 13.9328 8.55033 13.9561Q8.39301 13.9794 8.23472 13.995Q8.07644 14.0106 7.91758 14.0184Q7.75872 14.0262 7.59967 14.0262L4.74522e-08 14.0262L2.19191e-08 6.479Q2.1381e-08 6.31995 0.00780426 6.16109Q0.0156085 6.00223 0.0311982 5.84395Q0.0467879 5.68566 0.0701254 5.52833Q0.093463 5.37101 0.124492 5.21501Q0.155521 5.05902 0.194168 4.90473Q0.232814 4.75045 0.278984 4.59825Q0.325154 4.44604 0.378736 4.29629Q0.432319 4.14654 0.493185 3.99959Q0.554051 3.85265 0.622053 3.70887Q0.690056 3.56509 0.765032 3.42482Q0.840008 3.28455 0.921776 3.14813Q1.00354 3.01171 1.09191 2.87946Q1.18027 2.74722 1.27502 2.61946Q1.36976 2.49171 1.47067 2.36877Q1.57157 2.24582 1.67838 2.12797Q1.78519 2.01012 1.89766 1.89766Q2.01012 1.78519 2.12797 1.67838Q2.24582 1.57157 2.36877 1.47067Q2.49171 1.36976 2.61946 1.27502Q2.74722 1.18027 2.87946 1.09191Q3.01171 1.00354 3.14813 0.921776Q3.28455 0.840008 3.42482 0.765032Q3.56509 0.690056 3.70887 0.622053Q3.85265 0.554051 3.99959 0.493185Q4.14654 0.432319 4.29629 0.378736Q4.44604 0.325154 4.59825 0.278984Q4.75045 0.232814 4.90473 0.194168Q5.05902 0.155521 5.21501 0.124492Q5.37101 0.0934629 5.52833 0.0701254Q5.68566 0.0467878 5.84395 0.0311981Q6.00223 0.0156085 6.16109 0.00780422Q6.31995 -2.1381e-08 6.479 -2.19191e-08Z" transform="matrix(0.99999934 -9.2694464E-08 9.2694464E-08 0.99999934 -1.5258789E-05 0)" id="Mask" fill="#FFFFFF" fill-rule="evenodd" stroke="none" />
          <g clip-path="url(#mask_1)">
            <path d="M6.10352e-05 6.10352e-05L2.22301 6.14363e-05L2.22301 16.241L5.81041e-05 16.241L6.10352e-05 6.10352e-05Z" transform="matrix(0.70710576 -0.7071062 0.7071062 0.70710576 -2.4520721 3.902832)" id="Rectangle-4" fill="#212121" fill-opacity="0.28627452" fill-rule="evenodd" stroke="none" />
            <path d="M5.30639e-09 1.5685L1.57186 -5.31777e-09L13.0805 11.4841L11.5087 13.0526L5.30639e-09 1.5685Z" transform="matrix(0.99999934 -9.2694464E-08 9.2694464E-08 0.99999934 1.9813385 -1.3590088)" id="Rectangle-4-Copy" fill="#2E2E2E" fill-opacity="0.28627452" fill-rule="evenodd" stroke="none" />
          </g>
        </g>
        <path d="M-6.09955e-05 1.28434L5.40772 0.000116825" transform="matrix(1 4.415311E-08 -4.415311E-08 1 38.65155 10.725952)" id="Path-7-Copy" fill="none" fill-rule="evenodd" stroke="#FFFFFF" stroke-opacity="0.5" stroke-width="0.72" />
        <path d="M-1.51304e-05 5.34142L2.08063 -5.00226e-08" transform="matrix(1 4.415311E-08 -4.415311E-08 1 36.429794 4.4538574)" id="Path-7" fill="none" fill-rule="evenodd" stroke="#FFFFFF" stroke-opacity="0.5" stroke-width="0.72" />
        <path d="M5.92783 11.8118C9.2017 11.8118 11.8557 9.1677 11.8557 5.90602C11.8557 2.64435 9.2017 0.000243919 5.92783 0.000243998C2.65396 0.000244077 -3.0454e-05 2.64435 -3.03756e-05 5.90602C-3.02972e-05 9.1677 2.65396 11.8118 5.92783 11.8118Z" transform="matrix(1 4.415311E-08 -4.415311E-08 1 27.386826 8.141602)" id="Oval-4" fill="#FFFFFF" fill-rule="evenodd" stroke="none" />
      </g>
    </g>
    <g id="tube" transform="translate(191.60352 170.47314)">
      <path d="M25.4583 4.26326e-14L25.4603 4.26326e-14Q26.0853 4.26326e-14 26.7095 0.0306657Q27.3337 0.0613314 27.9557 0.122589Q28.5777 0.183846 29.1959 0.275548Q29.8141 0.36725 30.427 0.489175Q31.04 0.6111 31.6462 0.762955Q32.2525 0.914809 32.8505 1.09623Q33.4486 1.27765 34.037 1.48819Q34.6254 1.69874 35.2028 1.9379Q35.7802 2.17707 36.3452 2.44427Q36.9101 2.71148 37.4613 3.00609Q38.0125 3.3007 38.5485 3.62199Q39.0846 3.94329 39.6042 4.2905Q40.1239 4.63772 40.6259 5.01001Q41.1278 5.3823 41.6109 5.77878Q42.0941 6.17525 42.5571 6.59496Q43.0202 7.01466 43.4621 7.45658Q43.904 7.8985 44.3237 8.36157Q44.7434 8.82464 45.1399 9.30774Q45.5364 9.79085 45.9087 10.2928Q46.281 10.7948 46.6282 11.3144Q46.9754 11.8341 47.2967 12.3701Q47.618 12.9062 47.9126 13.4574Q48.2072 14.0085 48.4744 14.5735Q48.7416 15.1385 48.9808 15.7159Q49.22 16.2933 49.4305 16.8817Q49.641 17.4701 49.8225 18.0682Q50.0039 18.6662 50.1557 19.2725Q50.3076 19.8787 50.4295 20.4917Q50.5514 21.1046 50.6431 21.7228Q50.7348 22.341 50.7961 22.963Q50.8574 23.585 50.888 24.2092Q50.9187 24.8334 50.9187 25.4583C50.9187 70.0264 50.9187 157.495 50.9187 157.495C50.9187 157.495 37.6442 159.184 28.5145 159.427C19.3847 159.671 0 159.249 0 159.249L0 25.4583Q0 24.8334 0.0306657 24.2092Q0.0613314 23.585 0.122589 22.963Q0.183846 22.341 0.275548 21.7228Q0.36725 21.1046 0.489175 20.4917Q0.6111 19.8787 0.762955 19.2725Q0.914809 18.6662 1.09623 18.0682Q1.27765 17.4701 1.48819 16.8817Q1.69874 16.2933 1.9379 15.7159Q2.17707 15.1385 2.44427 14.5735Q2.71148 14.0085 3.00609 13.4574Q3.3007 12.9062 3.62199 12.3701Q3.94329 11.8341 4.2905 11.3144Q4.63772 10.7948 5.01001 10.2928Q5.3823 9.79085 5.77878 9.30774Q6.17525 8.82464 6.59496 8.36157Q7.01466 7.8985 7.45658 7.45658Q7.8985 7.01466 8.36157 6.59496Q8.82464 6.17525 9.30774 5.77878Q9.79085 5.3823 10.2928 5.01001Q10.7948 4.63772 11.3144 4.2905Q11.8341 3.94329 12.3701 3.62199Q12.9062 3.3007 13.4574 3.00609Q14.0085 2.71148 14.5735 2.44427Q15.1385 2.17707 15.7159 1.9379Q16.2933 1.69874 16.8817 1.48819Q17.4701 1.27765 18.0682 1.09623Q18.6662 0.914809 19.2725 0.762955Q19.8787 0.6111 20.4917 0.489175Q21.1046 0.36725 21.7228 0.275548Q22.341 0.183846 22.963 0.122589Q23.585 0.0613314 24.2092 0.0306657Q24.8334 4.26326e-14 25.4583 4.26326e-14Z" id="Combined-Shape" fill="url(#gradient_3)" fill-rule="evenodd" stroke="none" />
      <path d="M24.999 0L94.7088 0L94.7088 50.9255L40.3797 50.9255L0 50.9255L0 24.999Q0 24.3853 0.0301124 23.7724Q0.0602248 23.1594 0.120377 22.5487Q0.180529 21.9379 0.270576 21.3309Q0.360624 20.7238 0.480349 20.1219Q0.600074 19.52 0.749189 18.9247Q0.898303 18.3294 1.07645 17.7422Q1.25459 17.1549 1.46134 16.5771Q1.66809 15.9993 1.90294 15.4323Q2.13778 14.8653 2.40017 14.3105Q2.66256 13.7558 2.95185 13.2146Q3.24114 12.6733 3.55664 12.1469Q3.87214 11.6206 4.21309 11.1103Q4.55404 10.6 4.91961 10.1071Q5.28519 9.61419 5.67451 9.1398Q6.06383 8.66541 6.47596 8.2107Q6.88809 7.75598 7.32204 7.32204Q7.75598 6.88809 8.2107 6.47596Q8.66541 6.06383 9.1398 5.67451Q9.61419 5.28519 10.1071 4.91961Q10.6 4.55404 11.1103 4.21309Q11.6206 3.87214 12.1469 3.55664Q12.6733 3.24114 13.2146 2.95185Q13.7558 2.66256 14.3105 2.40017Q14.8653 2.13778 15.4323 1.90294Q15.9993 1.66809 16.5771 1.46134Q17.1549 1.25459 17.7422 1.07645Q18.3294 0.898303 18.9247 0.749189Q19.52 0.600074 20.1219 0.480349Q20.7238 0.360624 21.3309 0.270576Q21.9379 0.180529 22.5487 0.120377Q23.1594 0.0602248 23.7724 0.0301124Q24.3853 0 24.999 0L24.999 0Z" id="Rectangle-2" fill="url(#gradient_4)" fill-rule="evenodd" stroke="none" />
      <g id="Oval">
        <use stroke="none" fill="url(#gradient_5)" xlink:href="#path_2" fill-rule="evenodd" />
        <use stroke="none" fill="#FFFFFF" style="mix-blend-mode: overlay;" xlink:href="#path_2" fill-rule="evenodd" />
      </g>
    </g>
    <g id="lines" transform="matrix(0.017452383 0.9998477 -0.9998477 0.017452383 322.33783 147.14038)" opacity="0.5">
      <path d="M9.10274 11.048L3.96448 1.13858C3.4258 0.0997286 2.15547 -0.301299 1.12709 0.242863C0.0987222 0.787025 -0.298259 2.07031 0.240412 3.10917L5.37867 13.0186C5.91734 14.0574 7.18768 14.4584 8.21605 13.9143C9.24443 13.3701 9.64141 12.0868 9.10274 11.048Z" transform="translate(15.401245 5.0409546)" id="Line" fill="url(#gradient_6)" fill-rule="evenodd" stroke="none" />
      <path d="M9.10273 11.0479L3.96447 1.13855C3.4258 0.0996979 2.15546 -0.301329 1.12709 0.242832C0.0987221 0.786993 -0.298258 2.07028 0.240412 3.10913L5.37867 13.0185C5.91734 14.0574 7.18768 14.4584 8.21605 13.9142C9.24442 13.3701 9.6414 12.0868 9.10273 11.0479Z" transform="matrix(0.9135454 -0.40673664 0.40673664 0.9135454 0 18.921875)" id="Line-Copy" fill="url(#gradient_6)" fill-rule="evenodd" stroke="none" />
      <path d="M9.10272 11.048L3.96447 1.13858C3.4258 0.0997292 2.15546 -0.301298 1.12709 0.242863C0.0987219 0.787024 -0.298259 2.07031 0.240411 3.10916L5.37866 13.0185C5.91733 14.0574 7.18767 14.4584 8.21604 13.9143C9.24441 13.3701 9.64139 12.0868 9.10272 11.048Z" transform="matrix(0.86602646 0.5 -0.5 0.86602646 35.264282 0)" id="Line-Copy-2" fill="url(#gradient_6)" fill-rule="evenodd" stroke="none" />
    </g>
  </g>
</svg>