<?xml version="1.0" encoding="utf-8"?>
<svg width="443px" height="491px" viewbox="0 0 443 491" version="1.1" xmlns:xlink="http://www.w3.org/1999/xlink" xmlns="http://www.w3.org/2000/svg">
  <g id="Group-3">
    <g id="Group" transform="translate(135.9018 0)">
      <g id="Group">
        <path d="M0.0271253 22.4152C0.0271253 22.4152 -1.6236 250.271 20.8266 265.679C43.2768 281.088 194.156 265.679 194.156 265.679C194.156 265.679 192.175 340.101 273.392 346.33C255.233 314.529 251.272 267.974 251.272 267.974C251.272 267.974 296.832 270.269 304.426 258.139C312.019 246.008 299.804 21.4316 296.832 7.00642C293.861 -7.41929 6.63014 1.76064 0.0271253 22.4152Z" id="Path" fill="#000000" fill-rule="evenodd" stroke="none" />
        <path d="M16.7724 30.1716C25.0697 29.256 31.0543 21.78 30.1394 13.4739C29.2245 5.16792 21.7566 -0.823325 13.4594 0.0925805C5.1621 1.00849 -0.822488 8.4845 0.0923798 16.7905C1.00725 25.0965 8.47513 31.0875 16.7724 30.1716Z" transform="translate(73.63868 116.009766)" id="Oval" fill="#FFFFFF" fill-rule="evenodd" stroke="none" />
        <path d="M16.7724 30.1716C25.0697 29.256 31.0543 21.78 30.1394 13.4739C29.2245 5.16792 21.7566 -0.823325 13.4594 0.0925805C5.1621 1.00849 -0.822488 8.4845 0.0923799 16.7905C1.00725 25.0965 8.47513 31.0875 16.7724 30.1716Z" transform="translate(140.68465 108.761475)" id="Oval" fill="#FFFFFF" fill-rule="evenodd" stroke="none" />
        <path d="M16.7724 30.1716C25.0696 29.256 31.0543 21.78 30.1394 13.4739C29.2245 5.16792 21.7566 -0.823325 13.4594 0.0925805C5.1621 1.00849 -0.822488 8.4845 0.0923798 16.7905C1.00725 25.0966 8.47513 31.0875 16.7724 30.1716Z" transform="translate(207.3683 101.22266)" id="Oval" fill="#FFFFFF" fill-rule="evenodd" stroke="none" />
      </g>
    </g>
    <g id="Group-2" transform="translate(0 176.10547)">
      <path d="M11.7848 232.991L156.083 244.978C156.083 244.978 156.579 298.667 151.62 311.403C146.413 324.388 190.05 300.915 196.248 244.978C234.678 245.977 262.199 249.223 262.199 249.223C262.199 249.223 273.356 43.7043 271.62 28.4714C269.885 12.9889 36.5783 0.752642 20.2146 0.00348555C3.85089 -0.99539 -11.2731 213.014 11.7848 232.991Z" id="Path" fill="#FF9800" fill-rule="evenodd" stroke="none" />
      <path d="M30.6517 17.6076C31.8581 9.17783 26.0094 1.3653 17.5888 0.157778C9.16796 -1.04975 1.36378 4.80498 0.157601 13.2347C-1.04878 21.6644 4.79985 29.4769 13.2205 30.6845C21.6413 31.892 29.4455 26.0373 30.6517 17.6076Z" transform="translate(55.483032 94.99951)" id="Oval" fill="#FFFFFF" fill-rule="evenodd" stroke="none" />
      <path d="M30.6517 17.6076C31.8581 9.17783 26.0094 1.3653 17.5888 0.157778C9.16796 -1.04975 1.36378 4.80498 0.157601 13.2347C-1.04878 21.6644 4.79985 29.4769 13.2205 30.6845C21.6413 31.892 29.4455 26.0373 30.6517 17.6076Z" transform="translate(122.60553 104.65381)" id="Oval-2" fill="#FFFFFF" fill-rule="evenodd" stroke="none" />
      <path d="M30.6517 17.6076C31.8581 9.17783 26.0094 1.3653 17.5888 0.157778C9.16796 -1.04975 1.36378 4.80498 0.157601 13.2347C-1.04878 21.6644 4.79985 29.4769 13.2205 30.6845C21.6413 31.892 29.4455 26.0373 30.6517 17.6076Z" transform="translate(191.96387 114.34326)" id="Oval-3" fill="#FFFFFF" fill-rule="evenodd" stroke="none" />
    </g>
  </g>
</svg>